PathFileType	4	(X/Y/Z)	D:\Share\Shared_Data\Ergonomics\Sit To Stand Pertubation\S0\Perturbed STS.trc
DataRate	CameraRate	NumFrames	NumMarkers	Units	OrigDataRate	OrigDataStartFrame	OrigNumFrames	
100	100	6	18	m	100	12966	241
Frame#	Time	R_Heel			R_ASIS			R_Pelvis			V_Sacral			L_Pelvis			L_ASIS			Clavical			R_Acromium			L_Acromium			Sternum			Torso			R_Thigh_Med			R_Thigh_Lat			R_Thigh			R_Shank_Med			R_Shank_Lat			R_Shank			R_Toe			
		X1	Y1	Z1	X2	Y2	Z2	X3	Y3	Z3	X4	Y4	Z4	X5	Y5	Z5	X6	Y6	Z6	X7	Y7	Z7	X8	Y8	Z8	X9	Y9	Z9	X10	Y10	Z10	X11	Y11	Z11	X12	Y12	Z12	X13	Y13	Z13	X14	Y14	Z14	X15	Y15	Z15	X16	Y16	Z16	X17	Y17	Z17	X18	Y18	Z18	

12966	86	0.17364629	0.04181905	0.11481937	0.17921188	0.83242957	0.13266925	0.065063103	0.88814673	0.18070372	-0.069041817	0.91346515	-0.045508549	0.068596916	0.86486072	-0.22821227	0.17798083	0.8096748	-0.17942613	0.42791626	1.1187805	-0.034520676	0.40544644	1.2244786	0.092016571	0.39439514	1.229519	-0.17892459	0.39744409	1.0287478	-0.056423405	0.40540222	1.0835485	-0.15101843	0.36375845	0.47872934	0.029234489	0.36367194	0.49857321	0.1632234	0.34497641	0.65121118	0.086703888	0.27536227	0.096854256	0.066324417	0.22036237	0.086285439	0.15838063	0.30070078	0.30446054	0.17696846	0.40103888	0.048509678	0.1062035
12967	86.01	0.17357663	0.041767143	0.11485879	0.18117746	0.83552332	0.13301358	0.067443275	0.89164044	0.1812226	-0.066808434	0.91749231	-0.044852207	0.070268425	0.86865961	-0.22789594	0.17926143	0.81309558	-0.17912303	0.42865552	1.1247517	-0.034768639	0.4058739	1.2303096	0.091947754	0.39460886	1.2353304	-0.17924028	0.39854794	1.0346145	-0.056641331	0.40607257	1.0893728	-0.15142192	0.36329758	0.47901492	0.02935767	0.36322519	0.49877075	0.16326018	0.34605295	0.65172491	0.087198425	0.27521375	0.096920845	0.066324028	0.22029488	0.086259544	0.15840916	0.30038959	0.3045289	0.17701576	0.40089166	0.048637497	0.10610327
12968	86.02	0.17350717	0.041717129	0.114901	0.18312955	0.83864978	0.1333508	0.069811821	0.89515118	0.18173767	-0.064594566	0.92150366	-0.044188087	0.071942078	0.87248608	-0.22757109	0.18054721	0.81654138	-0.17881786	0.42932785	1.1307844	-0.035001907	0.40619846	1.2362092	0.091886436	0.39473886	1.2412037	-0.17953603	0.3995585	1.0405437	-0.056846939	0.40669595	1.0952604	-0.15181598	0.3627948	0.47933429	0.029468399	0.36272308	0.49901443	0.16328934	0.34706897	0.65224078	0.08764505	0.27506277	0.09698925	0.066325714	0.22022456	0.086235306	0.15844093	0.30004242	0.30460919	0.17706097	0.40074731	0.048759998	0.10600578
12969	86.03	0.17343523	0.041669025	0.11494576	0.18507103	0.84180804	0.13368208	0.072164406	0.89868958	0.18224419	-0.062397419	0.92549414	-0.043522297	0.073619942	0.87633337	-0.22723955	0.18185402	0.82001233	-0.17851932	0.42993985	1.1368733	-0.035217335	0.40642465	1.2421682	0.091837921	0.39478519	1.2471282	-0.1798107	0.40049802	1.0465276	-0.05703355	0.40727679	1.1012028	-0.15219185	0.36224158	0.47968323	0.029564156	0.36216925	0.49928577	0.16330577	0.34802249	0.65275085	0.088043091	0.27490555	0.097058571	0.066327797	0.22015141	0.086212692	0.15847499	0.29966098	0.3047001	0.1771039	0.40060568	0.04887648	0.10590895
12970	86.04	0.17335835	0.041622978	0.11499246	0.18700632	0.84499615	0.13400876	0.074498894	0.90226044	0.18273775	-0.060212635	0.9294599	-0.042861546	0.075303787	0.88019446	-0.22690495	0.18319209	0.82350562	-0.17823296	0.43049963	1.1430134	-0.035412113	0.40655768	1.2481761	0.091807114	0.39474896	1.2530933	-0.18006467	0.40139914	1.052557	-0.057193657	0.40781793	1.107191	-0.1525448	0.36162891	0.48005374	0.029645004	0.36156778	0.49956964	0.16330858	0.34891568	0.65324817	0.088398079	0.27474081	0.097128609	0.066328522	0.22007643	0.08619178	0.1585099	0.29924863	0.30480026	0.17714427	0.40046695	0.048986927	0.1058113
12971	86.05	0.17327469	0.041579044	0.1150401	0.18894363	0.84821161	0.13433224	0.076815521	0.90586188	0.18321574	-0.058034439	0.93339764	-0.042213589	0.07699646	0.88406317	-0.22657329	0.18456749	0.82701892	-0.17796074	0.43101532	1.1492009	-0.035584072	0.40660281	1.2542225	0.091798111	0.39463181	1.259089	-0.18029929	0.4022952	1.0586218	-0.057320816	0.40832193	1.1132177	-0.15287415	0.36095215	0.48043655	0.029713352	0.36092294	0.49985925	0.16330142	0.34975446	0.65372906	0.088721008	0.27456952	0.097199753	0.066326302	0.22000121	0.086172745	0.15854388	0.29881021	0.30490863	0.177183	0.40033112	0.049092144	0.1057114
